<mxfile host="65bd71144e">
    <diagram id="02SapOzhCbqgvy_b65oz" name="Page-1">
        <mxGraphModel dx="1654" dy="916" grid="1" gridSize="10" guides="1" tooltips="1" connect="1" arrows="1" fold="1" page="1" pageScale="1" pageWidth="850" pageHeight="1100" math="0" shadow="0">
            <root>
                <mxCell id="0"/>
                <mxCell id="1" parent="0"/>
                <mxCell id="2" value="Movie" style="whiteSpace=wrap;html=1;align=center;fontSize=13;fillColor=#ffe6cc;strokeColor=#d79b00;" parent="1" vertex="1">
                    <mxGeometry x="-640" y="400" width="80" height="40" as="geometry"/>
                </mxCell>
                <mxCell id="100" style="edgeStyle=orthogonalEdgeStyle;html=1;endArrow=none;endFill=0;jumpStyle=arc;fontSize=13;" edge="1" parent="1" source="4" target="57">
                    <mxGeometry relative="1" as="geometry"/>
                </mxCell>
                <mxCell id="180" style="edgeStyle=orthogonalEdgeStyle;shape=connector;rounded=1;jumpStyle=arc;html=1;align=center;verticalAlign=middle;fontFamily=Helvetica;fontSize=11;fontColor=default;labelBackgroundColor=default;endArrow=none;endFill=0;" edge="1" parent="1" source="4" target="179">
                    <mxGeometry relative="1" as="geometry"/>
                </mxCell>
                <mxCell id="4" value="Room" style="whiteSpace=wrap;html=1;align=center;fontSize=13;fillColor=#ffe6cc;strokeColor=#d79b00;" parent="1" vertex="1">
                    <mxGeometry x="-170" y="525" width="80" height="40" as="geometry"/>
                </mxCell>
                <mxCell id="58" style="edgeStyle=orthogonalEdgeStyle;html=1;endArrow=none;endFill=0;jumpStyle=arc;fontSize=13;" parent="1" source="6" target="56" edge="1">
                    <mxGeometry relative="1" as="geometry"/>
                </mxCell>
                <mxCell id="140" style="edgeStyle=orthogonalEdgeStyle;html=1;endArrow=none;endFill=0;jumpStyle=arc;fontSize=13;" edge="1" parent="1" source="6" target="139">
                    <mxGeometry relative="1" as="geometry">
                        <mxPoint x="210" y="330" as="sourcePoint"/>
                    </mxGeometry>
                </mxCell>
                <mxCell id="6" value="Cinema" style="whiteSpace=wrap;html=1;align=center;fontSize=13;fillColor=#ffe6cc;strokeColor=#d79b00;" parent="1" vertex="1">
                    <mxGeometry x="-170" y="345" width="80" height="40" as="geometry"/>
                </mxCell>
                <mxCell id="103" style="edgeStyle=orthogonalEdgeStyle;html=1;endArrow=none;endFill=0;jumpStyle=arc;fontSize=13;" edge="1" parent="1" source="7" target="102">
                    <mxGeometry relative="1" as="geometry"/>
                </mxCell>
                <mxCell id="7" value="Seat" style="whiteSpace=wrap;html=1;align=center;fontSize=13;fillColor=#ffe6cc;strokeColor=#d79b00;" parent="1" vertex="1">
                    <mxGeometry x="-170" y="685" width="80" height="40" as="geometry"/>
                </mxCell>
                <mxCell id="16" value="" style="edgeStyle=orthogonalEdgeStyle;html=1;endArrow=none;endFill=0;jumpStyle=arc;fontSize=13;" parent="1" source="8" target="13" edge="1">
                    <mxGeometry relative="1" as="geometry"/>
                </mxCell>
                <mxCell id="8" value="User" style="whiteSpace=wrap;html=1;align=center;fontSize=13;fillColor=#ffe6cc;strokeColor=#d79b00;" parent="1" vertex="1">
                    <mxGeometry x="240" y="30" width="80" height="40" as="geometry"/>
                </mxCell>
                <mxCell id="11" value="Admin" style="whiteSpace=wrap;html=1;align=center;fontSize=13;fillColor=#ffe6cc;strokeColor=#d79b00;" parent="1" vertex="1">
                    <mxGeometry x="-270" y="160" width="80" height="40" as="geometry"/>
                </mxCell>
                <mxCell id="65" style="edgeStyle=orthogonalEdgeStyle;html=1;endArrow=none;endFill=0;jumpStyle=arc;fontSize=13;" parent="1" source="12" target="63" edge="1">
                    <mxGeometry relative="1" as="geometry"/>
                </mxCell>
                <mxCell id="12" value="Customer" style="whiteSpace=wrap;html=1;align=center;fontSize=13;fillColor=#ffe6cc;strokeColor=#d79b00;" parent="1" vertex="1">
                    <mxGeometry x="400" y="160" width="80" height="40" as="geometry"/>
                </mxCell>
                <mxCell id="18" style="edgeStyle=orthogonalEdgeStyle;html=1;endArrow=none;endFill=0;jumpStyle=arc;fontSize=13;" parent="1" source="13" target="12" edge="1">
                    <mxGeometry relative="1" as="geometry"/>
                </mxCell>
                <mxCell id="153" style="edgeStyle=orthogonalEdgeStyle;shape=connector;rounded=1;jumpStyle=arc;html=1;align=center;verticalAlign=middle;fontFamily=Helvetica;fontSize=13;fontColor=default;labelBackgroundColor=default;endArrow=none;endFill=0;" edge="1" parent="1" source="13" target="11">
                    <mxGeometry relative="1" as="geometry"/>
                </mxCell>
                <mxCell id="13" value="" style="ellipse;whiteSpace=wrap;html=1;align=center;fontSize=13;" parent="1" vertex="1">
                    <mxGeometry x="270" y="100" width="20" height="20" as="geometry"/>
                </mxCell>
                <mxCell id="19" value="Poster" style="whiteSpace=wrap;html=1;align=center;fontSize=13;fillColor=#ffe6cc;strokeColor=#d79b00;" parent="1" vertex="1">
                    <mxGeometry x="-640" y="320" width="80" height="40" as="geometry"/>
                </mxCell>
                <mxCell id="60" style="edgeStyle=orthogonalEdgeStyle;html=1;endArrow=none;endFill=0;jumpStyle=arc;fontSize=13;" parent="1" source="56" target="4" edge="1">
                    <mxGeometry relative="1" as="geometry"/>
                </mxCell>
                <mxCell id="56" value="Relationship" style="shape=rhombus;perimeter=rhombusPerimeter;whiteSpace=wrap;html=1;align=center;fontSize=13;" parent="1" vertex="1">
                    <mxGeometry x="-170" y="445" width="80" height="40" as="geometry"/>
                </mxCell>
                <mxCell id="61" style="edgeStyle=orthogonalEdgeStyle;html=1;endArrow=none;endFill=0;jumpStyle=arc;fontSize=13;" parent="1" source="57" target="7" edge="1">
                    <mxGeometry relative="1" as="geometry"/>
                </mxCell>
                <mxCell id="57" value="Relationship" style="shape=rhombus;perimeter=rhombusPerimeter;whiteSpace=wrap;html=1;align=center;fontSize=13;" parent="1" vertex="1">
                    <mxGeometry x="-170" y="615" width="80" height="40" as="geometry"/>
                </mxCell>
                <mxCell id="105" style="edgeStyle=orthogonalEdgeStyle;html=1;endArrow=none;endFill=0;jumpStyle=arc;fontSize=13;" edge="1" parent="1" source="63" target="106">
                    <mxGeometry relative="1" as="geometry">
                        <mxPoint x="440" y="330" as="targetPoint"/>
                    </mxGeometry>
                </mxCell>
                <mxCell id="63" value="Relationship" style="shape=rhombus;perimeter=rhombusPerimeter;whiteSpace=wrap;html=1;align=center;fontSize=13;" parent="1" vertex="1">
                    <mxGeometry x="600" y="160" width="80" height="40" as="geometry"/>
                </mxCell>
                <mxCell id="185" style="edgeStyle=orthogonalEdgeStyle;shape=connector;rounded=1;jumpStyle=arc;html=1;align=center;verticalAlign=middle;fontFamily=Helvetica;fontSize=11;fontColor=default;labelBackgroundColor=default;endArrow=none;endFill=0;" edge="1" parent="1" source="101" target="184">
                    <mxGeometry relative="1" as="geometry"/>
                </mxCell>
                <mxCell id="101" value="Ticket" style="whiteSpace=wrap;html=1;align=center;fontSize=13;fillColor=#ffe6cc;strokeColor=#d79b00;" vertex="1" parent="1">
                    <mxGeometry x="350" y="550" width="80" height="40" as="geometry"/>
                </mxCell>
                <mxCell id="104" style="edgeStyle=orthogonalEdgeStyle;html=1;endArrow=none;endFill=0;jumpStyle=arc;fontSize=13;" edge="1" parent="1" source="102" target="101">
                    <mxGeometry relative="1" as="geometry"/>
                </mxCell>
                <mxCell id="102" value="Relationship" style="shape=rhombus;perimeter=rhombusPerimeter;whiteSpace=wrap;html=1;align=center;fontSize=13;" vertex="1" parent="1">
                    <mxGeometry x="30" y="530" width="80" height="40" as="geometry"/>
                </mxCell>
                <mxCell id="117" style="edgeStyle=orthogonalEdgeStyle;html=1;endArrow=none;endFill=0;jumpStyle=arc;fontSize=13;" edge="1" parent="1" source="106" target="115">
                    <mxGeometry relative="1" as="geometry"/>
                </mxCell>
                <mxCell id="106" value="Order" style="whiteSpace=wrap;html=1;align=center;fontSize=13;fillColor=#ffe6cc;strokeColor=#d79b00;" vertex="1" parent="1">
                    <mxGeometry x="600" y="300" width="80" height="40" as="geometry"/>
                </mxCell>
                <mxCell id="122" style="edgeStyle=orthogonalEdgeStyle;html=1;endArrow=none;endFill=0;jumpStyle=arc;fontSize=13;" edge="1" parent="1" source="115" target="118">
                    <mxGeometry relative="1" as="geometry"/>
                </mxCell>
                <mxCell id="123" style="edgeStyle=orthogonalEdgeStyle;html=1;endArrow=none;endFill=0;jumpStyle=arc;fontSize=13;" edge="1" parent="1" source="115" target="119">
                    <mxGeometry relative="1" as="geometry"/>
                </mxCell>
                <mxCell id="115" value="" style="ellipse;whiteSpace=wrap;html=1;align=center;fontSize=13;" vertex="1" parent="1">
                    <mxGeometry x="630" y="380" width="20" height="20" as="geometry"/>
                </mxCell>
                <mxCell id="129" style="edgeStyle=orthogonalEdgeStyle;html=1;endArrow=none;endFill=0;jumpStyle=arc;fontSize=13;" edge="1" parent="1" source="118" target="128">
                    <mxGeometry relative="1" as="geometry"/>
                </mxCell>
                <mxCell id="118" value="OrderTicket" style="whiteSpace=wrap;html=1;align=center;fontSize=13;fillColor=#ffe6cc;strokeColor=#d79b00;" vertex="1" parent="1">
                    <mxGeometry x="520" y="440" width="80" height="40" as="geometry"/>
                </mxCell>
                <mxCell id="132" style="edgeStyle=orthogonalEdgeStyle;html=1;endArrow=none;endFill=0;jumpStyle=arc;fontSize=13;" edge="1" parent="1" source="119" target="131">
                    <mxGeometry relative="1" as="geometry"/>
                </mxCell>
                <mxCell id="119" value="OrderProduct" style="whiteSpace=wrap;html=1;align=center;fontSize=13;fillColor=#ffe6cc;strokeColor=#d79b00;" vertex="1" parent="1">
                    <mxGeometry x="690" y="410" width="80" height="40" as="geometry"/>
                </mxCell>
                <mxCell id="127" value="Payment" style="whiteSpace=wrap;html=1;align=center;fontSize=13;fillColor=#ffe6cc;strokeColor=#d79b00;" vertex="1" parent="1">
                    <mxGeometry x="520" y="600" width="80" height="40" as="geometry"/>
                </mxCell>
                <mxCell id="130" style="edgeStyle=orthogonalEdgeStyle;html=1;endArrow=none;endFill=0;jumpStyle=arc;fontSize=13;" edge="1" parent="1" source="128" target="127">
                    <mxGeometry relative="1" as="geometry"/>
                </mxCell>
                <mxCell id="128" value="Relationship" style="shape=rhombus;perimeter=rhombusPerimeter;whiteSpace=wrap;html=1;align=center;fontSize=13;" vertex="1" parent="1">
                    <mxGeometry x="520" y="520" width="80" height="40" as="geometry"/>
                </mxCell>
                <mxCell id="133" style="edgeStyle=orthogonalEdgeStyle;html=1;endArrow=none;endFill=0;jumpStyle=arc;fontSize=13;" edge="1" parent="1" source="131" target="127">
                    <mxGeometry relative="1" as="geometry"/>
                </mxCell>
                <mxCell id="131" value="Relationship" style="shape=rhombus;perimeter=rhombusPerimeter;whiteSpace=wrap;html=1;align=center;fontSize=13;" vertex="1" parent="1">
                    <mxGeometry x="690" y="600" width="80" height="40" as="geometry"/>
                </mxCell>
                <mxCell id="136" value="" style="edgeStyle=orthogonalEdgeStyle;html=1;endArrow=none;endFill=0;jumpStyle=arc;fontSize=13;" edge="1" parent="1" source="134" target="135">
                    <mxGeometry relative="1" as="geometry"/>
                </mxCell>
                <mxCell id="134" value="Product" style="whiteSpace=wrap;html=1;align=center;fontSize=13;fillColor=#ffe6cc;strokeColor=#d79b00;" vertex="1" parent="1">
                    <mxGeometry x="810" y="270" width="80" height="40" as="geometry"/>
                </mxCell>
                <mxCell id="138" style="edgeStyle=orthogonalEdgeStyle;html=1;endArrow=none;endFill=0;jumpStyle=arc;fontSize=13;" edge="1" parent="1" source="135" target="119">
                    <mxGeometry relative="1" as="geometry"/>
                </mxCell>
                <mxCell id="135" value="Relationship" style="shape=rhombus;perimeter=rhombusPerimeter;whiteSpace=wrap;html=1;align=center;fontSize=13;" vertex="1" parent="1">
                    <mxGeometry x="810" y="410" width="80" height="40" as="geometry"/>
                </mxCell>
                <mxCell id="139" value="Relationship" style="shape=rhombus;perimeter=rhombusPerimeter;whiteSpace=wrap;html=1;align=center;fontSize=13;" vertex="1" parent="1">
                    <mxGeometry x="350" y="345" width="80" height="40" as="geometry"/>
                </mxCell>
                <mxCell id="144" value="" style="endArrow=none;html=1;edgeStyle=orthogonalEdgeStyle;jumpStyle=arc;fontSize=13;" edge="1" parent="1" source="139" target="134">
                    <mxGeometry width="50" height="50" relative="1" as="geometry">
                        <mxPoint x="550" y="490" as="sourcePoint"/>
                        <mxPoint x="600" y="440" as="targetPoint"/>
                        <Array as="points">
                            <mxPoint x="390" y="240"/>
                            <mxPoint x="850" y="240"/>
                        </Array>
                    </mxGeometry>
                </mxCell>
                <mxCell id="152" style="edgeStyle=orthogonalEdgeStyle;shape=connector;rounded=1;jumpStyle=arc;html=1;exitX=1;exitY=0;exitDx=0;exitDy=0;entryX=0.5;entryY=0;entryDx=0;entryDy=0;align=center;verticalAlign=middle;fontFamily=Helvetica;fontSize=13;fontColor=default;labelBackgroundColor=default;endArrow=none;endFill=0;" edge="1" parent="1" source="63" target="63">
                    <mxGeometry relative="1" as="geometry"/>
                </mxCell>
                <mxCell id="154" value="About" style="whiteSpace=wrap;html=1;align=center;fontSize=13;fillColor=#ffe6cc;strokeColor=#d79b00;" vertex="1" parent="1">
                    <mxGeometry x="-640" y="240" width="80" height="40" as="geometry"/>
                </mxCell>
                <mxCell id="163" value="1" style="edgeStyle=orthogonalEdgeStyle;shape=connector;rounded=1;jumpStyle=arc;html=1;align=center;verticalAlign=middle;fontFamily=Helvetica;fontSize=13;fontColor=default;labelBackgroundColor=default;endArrow=none;endFill=0;" edge="1" parent="1" target="162">
                    <mxGeometry relative="1" as="geometry">
                        <mxPoint x="160" y="180" as="sourcePoint"/>
                    </mxGeometry>
                </mxCell>
                <mxCell id="175" value="1" style="edgeStyle=orthogonalEdgeStyle;shape=connector;rounded=1;jumpStyle=arc;html=1;align=center;verticalAlign=middle;fontFamily=Helvetica;fontSize=13;fontColor=default;labelBackgroundColor=default;endArrow=none;endFill=0;" edge="1" parent="1" source="155" target="174">
                    <mxGeometry relative="1" as="geometry">
                        <Array as="points">
                            <mxPoint x="120" y="220"/>
                            <mxPoint x="50" y="220"/>
                            <mxPoint x="50" y="290"/>
                        </Array>
                    </mxGeometry>
                </mxCell>
                <mxCell id="155" value="FAQ" style="whiteSpace=wrap;html=1;align=center;fontSize=13;fillColor=#ffe6cc;strokeColor=#d79b00;" vertex="1" parent="1">
                    <mxGeometry x="80" y="160" width="80" height="40" as="geometry"/>
                </mxCell>
                <mxCell id="164" value="1" style="edgeStyle=orthogonalEdgeStyle;shape=connector;rounded=1;jumpStyle=arc;html=1;align=center;verticalAlign=middle;fontFamily=Helvetica;fontSize=13;fontColor=default;labelBackgroundColor=default;endArrow=none;endFill=0;" edge="1" parent="1" source="162" target="12">
                    <mxGeometry relative="1" as="geometry"/>
                </mxCell>
                <mxCell id="162" value="Relationship" style="shape=rhombus;perimeter=rhombusPerimeter;whiteSpace=wrap;html=1;align=center;fontSize=13;" vertex="1" parent="1">
                    <mxGeometry x="240" y="160" width="80" height="40" as="geometry"/>
                </mxCell>
                <mxCell id="165" value="New" style="whiteSpace=wrap;html=1;align=center;fontSize=13;fillColor=#ffe6cc;strokeColor=#d79b00;" vertex="1" parent="1">
                    <mxGeometry x="-640" y="160" width="80" height="40" as="geometry"/>
                </mxCell>
                <mxCell id="176" value="1" style="edgeStyle=orthogonalEdgeStyle;shape=connector;rounded=1;jumpStyle=arc;html=1;align=center;verticalAlign=middle;fontFamily=Helvetica;fontSize=13;fontColor=default;labelBackgroundColor=default;endArrow=none;endFill=0;arcSize=20;" edge="1" parent="1" source="174" target="155">
                    <mxGeometry relative="1" as="geometry">
                        <Array as="points">
                            <mxPoint x="180" y="290"/>
                            <mxPoint x="180" y="220"/>
                            <mxPoint x="120" y="220"/>
                        </Array>
                    </mxGeometry>
                </mxCell>
                <mxCell id="174" value="Relationship" style="shape=rhombus;perimeter=rhombusPerimeter;whiteSpace=wrap;html=1;align=center;fontSize=13;" vertex="1" parent="1">
                    <mxGeometry x="80" y="270" width="80" height="40" as="geometry"/>
                </mxCell>
                <mxCell id="182" style="edgeStyle=orthogonalEdgeStyle;shape=connector;rounded=1;jumpStyle=arc;html=1;align=center;verticalAlign=middle;fontFamily=Helvetica;fontSize=11;fontColor=default;labelBackgroundColor=default;endArrow=none;endFill=0;" edge="1" parent="1" source="178" target="2">
                    <mxGeometry relative="1" as="geometry"/>
                </mxCell>
                <mxCell id="178" value="Schedule" style="whiteSpace=wrap;html=1;align=center;fontSize=13;fillColor=#ffe6cc;strokeColor=#d79b00;" vertex="1" parent="1">
                    <mxGeometry x="-450" y="525" width="80" height="40" as="geometry"/>
                </mxCell>
                <mxCell id="181" style="edgeStyle=orthogonalEdgeStyle;shape=connector;rounded=1;jumpStyle=arc;html=1;align=center;verticalAlign=middle;fontFamily=Helvetica;fontSize=11;fontColor=default;labelBackgroundColor=default;endArrow=none;endFill=0;" edge="1" parent="1" source="179" target="178">
                    <mxGeometry relative="1" as="geometry"/>
                </mxCell>
                <mxCell id="179" value="Relationship" style="shape=rhombus;perimeter=rhombusPerimeter;whiteSpace=wrap;html=1;align=center;fontSize=13;" vertex="1" parent="1">
                    <mxGeometry x="-300" y="525" width="80" height="40" as="geometry"/>
                </mxCell>
                <mxCell id="186" style="edgeStyle=orthogonalEdgeStyle;shape=connector;rounded=1;jumpStyle=arc;html=1;entryX=0.5;entryY=1;entryDx=0;entryDy=0;align=center;verticalAlign=middle;fontFamily=Helvetica;fontSize=11;fontColor=default;labelBackgroundColor=default;endArrow=none;endFill=0;" edge="1" parent="1" source="184" target="178">
                    <mxGeometry relative="1" as="geometry"/>
                </mxCell>
                <mxCell id="184" value="Relationship" style="shape=rhombus;perimeter=rhombusPerimeter;whiteSpace=wrap;html=1;align=center;fontSize=13;" vertex="1" parent="1">
                    <mxGeometry x="190" y="780" width="80" height="40" as="geometry"/>
                </mxCell>
                <mxCell id="190" value="OTP" style="whiteSpace=wrap;html=1;align=center;fontSize=13;fillColor=#ffe6cc;strokeColor=#d79b00;" vertex="1" parent="1">
                    <mxGeometry x="610" width="80" height="40" as="geometry"/>
                </mxCell>
                <mxCell id="191" value="Deal" style="whiteSpace=wrap;html=1;align=center;fontSize=13;fillColor=#ffe6cc;strokeColor=#d79b00;" vertex="1" parent="1">
                    <mxGeometry x="-640" y="80" width="80" height="40" as="geometry"/>
                </mxCell>
            </root>
        </mxGraphModel>
    </diagram>
</mxfile>